<svg width="174" height="44" viewBox="0 0 174 44" fill="none" xmlns="http://www.w3.org/2000/svg">
<path d="M75.8966 33.7789C75.7079 33.6216 75.4784 33.4844 75.2081 33.3678C74.9376 33.2516 74.6295 33.1552 74.2837 33.0797C74.0383 33.0293 73.8276 32.9712 73.6516 32.905C73.4754 32.8388 73.3357 32.7634 73.2319 32.6783C73.1281 32.5931 73.051 32.4955 73.0008 32.3853C72.9502 32.2752 72.9253 32.1538 72.9253 32.0214C72.9253 31.839 72.9771 31.68 73.0809 31.5445C73.1847 31.4093 73.3277 31.3036 73.5101 31.2281C73.6925 31.1523 73.9062 31.1147 74.1516 31.1147C74.3652 31.1147 74.5666 31.1507 74.7553 31.223C74.944 31.2956 75.1167 31.4028 75.2741 31.5445C75.4311 31.6864 75.5727 31.8608 75.6986 32.069L76.4154 31.3601C76.2708 31.1083 76.0884 30.8957 75.8684 30.7226C75.6482 30.5495 75.3967 30.4187 75.1138 30.3307C74.8307 30.2424 74.5195 30.1984 74.1798 30.1984C73.8592 30.1984 73.5604 30.244 73.2837 30.3352C73.007 30.4268 72.7664 30.5559 72.5621 30.7226C72.3576 30.8896 72.1973 31.0865 72.0809 31.3129C71.9647 31.5397 71.9065 31.7854 71.9065 32.0497C71.9065 32.3208 71.9474 32.5649 72.0291 32.782C72.1108 32.9994 72.2367 33.1931 72.4065 33.3633C72.5763 33.5332 72.7868 33.6749 73.0386 33.7883C73.2899 33.9016 73.5856 33.9929 73.925 34.0622C74.139 34.1001 74.3276 34.1457 74.491 34.1994C74.6547 34.253 74.7977 34.3144 74.9202 34.3834C75.043 34.4531 75.1435 34.5286 75.2221 34.6102C75.3007 34.6921 75.3589 34.7836 75.3967 34.8841C75.4345 34.985 75.4532 35.0919 75.4532 35.2056C75.4532 35.3755 75.3967 35.5265 75.2834 35.6588C75.1703 35.7912 75.0162 35.8952 74.8212 35.9707C74.6262 36.0462 74.4093 36.0841 74.1704 36.0841C73.7804 36.0841 73.4441 35.999 73.1612 35.829C72.8783 35.6588 72.5825 35.3534 72.2744 34.9127L71.5764 35.7157C71.7712 35.999 71.993 36.237 72.2415 36.429C72.4897 36.6211 72.7664 36.7643 73.0716 36.8588C73.3766 36.9532 73.7082 37.0004 74.0666 37.0004C74.5635 37.0004 74.9912 36.9169 75.3496 36.7502C75.7079 36.5835 75.9846 36.3455 76.1795 36.0369C76.3745 35.7285 76.4721 35.363 76.4721 34.941C76.4721 34.7142 76.4232 34.5032 76.3258 34.3079C76.2282 34.113 76.0853 33.9363 75.8966 33.7789Z" fill="#d0d0d0"/>
<path d="M85.1642 34.5577C85.054 34.8506 84.9016 35.1056 84.7067 35.323C84.5117 35.5402 84.2806 35.7088 84.0134 35.8283C83.7462 35.9481 83.4522 36.0078 83.1315 36.0078C82.8106 36.0078 82.5166 35.9481 82.2496 35.8283C81.9822 35.7088 81.7496 35.5418 81.5515 35.3279C81.3534 35.1136 81.2009 34.8586 81.0941 34.5625C80.987 34.2667 80.9335 33.9452 80.9335 33.5986C80.9335 33.2463 80.987 32.9235 81.0941 32.6303C81.2009 32.3373 81.3534 32.0843 81.5515 31.8697C81.7496 31.6558 81.9822 31.4888 82.2496 31.3693C82.5166 31.2495 82.8106 31.1898 83.1315 31.1898C83.4522 31.1898 83.7462 31.2495 84.0134 31.3693C84.2806 31.4888 84.5117 31.6574 84.7067 31.8745C84.9016 32.092 85.054 32.347 85.1642 32.6399C85.2742 32.9328 85.3293 33.2524 85.3293 33.5986C85.3293 33.9452 85.2742 34.2648 85.1642 34.5577ZM85.4473 31.1708C85.1547 30.8622 84.812 30.6229 84.4191 30.4526C84.026 30.2824 83.5968 30.1976 83.1315 30.1976C82.666 30.1976 82.2368 30.2824 81.8439 30.4526C81.4508 30.6229 81.1081 30.8605 80.8157 31.166C80.5233 31.4714 80.2969 31.8305 80.1366 32.2429C79.9763 32.6556 79.896 33.1075 79.896 33.5986C79.896 34.09 79.9763 34.5419 80.1366 34.9547C80.2969 35.3671 80.5233 35.7261 80.8157 36.0316C81.1081 36.337 81.4508 36.5747 81.8439 36.7449C82.2368 36.9152 82.666 36.9999 83.1315 36.9999C83.5968 36.9999 84.026 36.9152 84.4191 36.7449C84.812 36.5747 85.1547 36.3354 85.4473 36.0268C85.7395 35.7181 85.9661 35.3577 86.1264 34.945C86.2868 34.5326 86.367 34.0839 86.367 33.5986C86.367 33.114 86.2868 32.6649 86.1264 32.2526C85.9661 31.8402 85.7395 31.4795 85.4473 31.1708Z" fill="#d0d0d0"/>
<path d="M94.4791 30.2924H90.1968V36.9055H91.2153V34.0904H94.0546V33.1079H91.2153V31.2749H94.4791V30.2924Z" fill="#d0d0d0"/>
<path d="M97.8748 31.2749H99.7236V36.9055H100.742V31.2749H102.648V30.2924H97.8748V31.2749Z" fill="#d0d0d0"/>
<path d="M112.345 34.4019C112.294 34.5657 112.255 34.6948 112.227 34.7893C112.198 34.8837 112.178 34.9611 112.165 35.0208C112.153 35.0806 112.14 35.1419 112.128 35.2052C112.125 35.2184 112.122 35.2357 112.119 35.2508C112.086 35.1239 112.05 34.9967 112.01 34.8696C111.963 34.7215 111.908 34.5721 111.845 34.4209L110.694 31.4355H109.779L108.591 34.4209C108.565 34.4902 108.537 34.5737 108.506 34.6711C108.474 34.769 108.432 34.9091 108.378 35.0915C108.36 35.1522 108.34 35.2241 108.317 35.3015C108.311 35.2662 108.305 35.2322 108.298 35.1956C108.273 35.0571 108.245 34.92 108.213 34.7844C108.182 34.6492 108.147 34.531 108.11 34.4302L106.836 30.2924H105.751L107.855 36.9055H108.543L110.188 32.8882L111.883 36.9055H112.59L114.694 30.2924H113.599L112.345 34.4019Z" fill="#d0d0d0"/>
<path d="M119.266 34.2792L119.768 32.9566C119.806 32.8493 119.853 32.7157 119.91 32.5548C119.966 32.3942 120.025 32.2227 120.085 32.0399C120.144 31.8575 120.201 31.6844 120.254 31.5206C120.264 31.491 120.272 31.4673 120.281 31.44C120.283 31.4467 120.285 31.4522 120.287 31.4592C120.344 31.6324 120.407 31.8228 120.476 32.0306C120.545 32.2384 120.606 32.4273 120.66 32.5975C120.713 32.7674 120.749 32.8747 120.768 32.9187L121.283 34.2792H119.266ZM119.787 30.2924L117.231 36.9055H118.269L118.893 35.2617H121.655L122.278 36.9055H123.362L120.825 30.2924H119.787Z" fill="#d0d0d0"/>
<path d="M127.994 31.2749H129.616C129.849 31.2749 130.058 31.3221 130.244 31.4165C130.429 31.511 130.574 31.642 130.678 31.8087C130.781 31.9757 130.833 32.1694 130.833 32.3897C130.833 32.585 130.792 32.7629 130.711 32.9235C130.629 33.0841 130.516 33.21 130.371 33.3015C130.226 33.3928 130.063 33.438 129.88 33.438H127.994V31.2749ZM130.833 34.1421C131.147 33.9564 131.399 33.7091 131.588 33.4005C131.777 33.0921 131.871 32.7581 131.871 32.399C131.871 32.0024 131.777 31.6449 131.588 31.3266C131.399 31.0086 131.146 30.7568 130.828 30.5709C130.511 30.3852 130.163 30.2924 129.786 30.2924H126.975V36.9055H127.994V34.4209H129.502L130.899 36.9055L132.135 36.9152L130.6 34.2596C130.68 34.2256 130.757 34.1867 130.833 34.1421Z" fill="#d0d0d0"/>
<path d="M140.143 31.2749V30.2924H135.983V36.9055H140.143V35.923H137.002V34.0052H139.624V33.0228H137.002V31.2749H140.143Z" fill="#d0d0d0"/>
<path d="M54.98 12.6259C55.3812 12.2241 55.851 11.9129 56.3888 11.6929C56.9265 11.4729 57.4985 11.3627 58.1045 11.3627C58.5891 11.3627 59.0436 11.4311 59.4679 11.5676C59.8917 11.7041 60.2819 11.8975 60.6383 12.1477C60.994 12.3982 61.3312 12.6905 61.6494 13.0242L64.0126 10.316C63.5581 9.78507 63.0162 9.32578 62.3879 8.93875C61.7589 8.55204 61.0813 8.26009 60.3541 8.06288C59.6269 7.86568 58.8845 7.76675 58.1272 7.76675C56.915 7.76675 55.798 7.97167 54.7755 8.38118C53.7529 8.791 52.8667 9.364 52.1168 10.0995C51.3669 10.8357 50.7799 11.7041 50.3558 12.7056C49.9314 13.707 49.7195 14.7994 49.7195 15.9829C49.7195 17.197 49.9203 18.3083 50.3216 19.3171C50.7229 20.3263 51.2949 21.1986 52.0374 21.9341C52.7794 22.6702 53.6543 23.2394 54.6619 23.6415C55.6693 24.043 56.7711 24.2444 57.9681 24.2444C58.7407 24.2444 59.5093 24.1493 60.2745 23.9598C61.0394 23.7703 61.7362 23.5085 62.3652 23.1748C62.9937 22.8411 63.4974 22.4618 63.8762 22.0369L62.0129 19.0781C61.7249 19.3817 61.3953 19.6508 61.0245 19.8859C60.6529 20.1213 60.2481 20.307 59.8088 20.4435C59.3692 20.58 58.9072 20.6484 58.4225 20.6484C57.7104 20.6484 57.0627 20.5424 56.4798 20.3298C55.8964 20.1175 55.4004 19.8063 54.9914 19.3968C54.5824 18.9869 54.2643 18.4978 54.0371 17.9286C53.8096 17.3598 53.6962 16.7264 53.6962 16.0285C53.6962 15.3155 53.8096 14.6706 54.0371 14.0937C54.2643 13.5175 54.5785 13.028 54.98 12.6259Z" fill="#d0d0d0"/>
<path d="M73.8065 19.5788C73.564 20.0493 73.2305 20.4209 72.8067 20.6939C72.3825 20.9672 71.8978 21.1034 71.3524 21.1034C70.807 21.1034 70.3184 20.9672 69.8867 20.6939C69.455 20.4209 69.1177 20.0493 68.8754 19.5788C68.6329 19.1086 68.5195 18.5699 68.5347 17.9629C68.5195 17.3562 68.6329 16.8134 68.8754 16.3358C69.1177 15.8576 69.455 15.4821 69.8867 15.2091C70.3184 14.9358 70.807 14.7993 71.3524 14.7993C71.8978 14.7993 72.3825 14.9358 72.8067 15.2091C73.2305 15.4821 73.564 15.8576 73.8065 16.3358C74.0487 16.8134 74.1622 17.3562 74.1473 17.9629C74.1622 18.5699 74.0487 19.1086 73.8065 19.5788ZM74.7041 12.5006C73.727 11.9546 72.6097 11.6815 71.3524 11.6815C70.0947 11.6815 68.9778 11.9546 68.0007 12.5006C67.0234 13.0469 66.2509 13.7904 65.6828 14.7312C65.1148 15.6719 64.8308 16.7492 64.8308 17.9629C64.8308 19.177 65.1148 20.2542 65.6828 21.1946C66.2509 22.1357 67.0234 22.8789 68.0007 23.4249C68.9778 23.9713 70.0947 24.2443 71.3524 24.2443C72.6097 24.2443 73.727 23.9713 74.7041 23.4249C75.6811 22.8789 76.4497 22.1357 77.0106 21.1946C77.5708 20.2542 77.8513 19.177 77.8513 17.9629C77.8513 16.7492 77.5708 15.6719 77.0106 14.7312C76.4497 13.7904 75.6811 13.0469 74.7041 12.5006Z" fill="#d0d0d0"/>
<path d="M87.6787 19.6925C87.4588 20.1785 87.1447 20.5575 86.7358 20.8305C86.3266 21.1038 85.8417 21.2403 85.2814 21.2403C84.7208 21.2403 84.2396 21.1038 83.8385 20.8305C83.4369 20.5575 83.1228 20.1785 82.8954 19.6925C82.6683 19.2072 82.5546 18.6384 82.5546 17.9858C82.5546 17.3183 82.6683 16.7418 82.8954 16.2559C83.1228 15.7706 83.4369 15.3913 83.8385 15.1179C84.2396 14.8449 84.7208 14.7084 85.2814 14.7084C85.8417 14.7084 86.3266 14.8449 86.7358 15.1179C87.1447 15.3913 87.4588 15.7706 87.6787 16.2559C87.8981 16.7418 88.0083 17.3183 88.0083 17.9858C88.0083 18.6384 87.8981 19.2072 87.6787 19.6925ZM87.9173 13.1154C87.7415 12.9368 87.5459 12.7691 87.3265 12.6146C86.9175 12.3265 86.4632 12.0991 85.9632 11.9318C85.4632 11.7651 84.9405 11.6816 84.3952 11.6816C83.3345 11.6816 82.3955 11.9546 81.5775 12.5006C80.7596 13.0469 80.1153 13.7947 79.6459 14.7425C79.1763 15.6909 78.9417 16.772 78.9417 17.9858C78.9417 19.1998 79.1763 20.2809 79.6459 21.2291C80.1153 22.1772 80.7557 22.9207 81.5662 23.4593C82.3763 23.998 83.3044 24.2674 84.3498 24.2674C84.91 24.2674 85.444 24.1875 85.9518 24.0282C86.4592 23.8692 86.9097 23.6566 87.3038 23.3909C87.6104 23.1844 87.8723 22.9516 88.0919 22.694L88.1901 24.0169H91.5758V7.17542H87.9173V13.1154Z" fill="#d0d0d0"/>
<path d="M97.075 16.1081C97.2869 15.6604 97.6012 15.3193 98.018 15.0836C98.4344 14.8488 98.9383 14.7312 99.5291 14.7312C99.9531 14.7312 100.332 14.8147 100.665 14.9814C100.998 15.1488 101.268 15.3797 101.472 15.6755C101.677 15.9713 101.794 16.3092 101.824 16.6882V16.711H96.873C96.9242 16.4945 96.9883 16.2906 97.075 16.1081ZM103.642 13.4108C103.127 12.8648 102.517 12.4402 101.813 12.1364C101.108 11.8332 100.332 11.6813 99.4837 11.6813C98.5896 11.6813 97.7681 11.8371 97.0182 12.1476C96.2684 12.4589 95.6207 12.8989 95.0753 13.468C94.5299 14.0368 94.1057 14.7081 93.8028 15.4818C93.4997 16.2559 93.3484 17.1057 93.3484 18.031C93.3484 19.23 93.6212 20.2957 94.1663 21.2287C94.7117 22.1621 95.4764 22.8979 96.4615 23.4362C97.446 23.9752 98.6051 24.2443 99.938 24.2443C100.484 24.2443 101.032 24.1798 101.586 24.051C102.138 23.9222 102.68 23.7288 103.21 23.4706C103.74 23.2127 104.24 22.879 104.71 22.4691L103.006 20.0567C102.536 20.4206 102.1 20.6789 101.699 20.8305C101.298 20.9824 100.839 21.0582 100.324 21.0582C99.5821 21.0582 98.9418 20.9217 98.4043 20.6484C97.8663 20.3754 97.4573 19.9922 97.1774 19.4988C97.048 19.2718 96.952 19.0238 96.8823 18.7595H105.165L105.187 17.7808C105.217 16.9011 105.096 16.0892 104.824 15.3456C104.551 14.6024 104.157 13.9572 103.642 13.4108Z" fill="#d0d0d0"/>
<path d="M111.675 12.6259C112.076 12.2241 112.546 11.9129 113.083 11.6929C113.621 11.4729 114.193 11.3627 114.799 11.3627C115.284 11.3627 115.738 11.4311 116.162 11.5676C116.586 11.7041 116.977 11.8975 117.333 12.1477C117.689 12.3982 118.026 12.6905 118.344 13.0242L120.707 10.316C120.253 9.78507 119.711 9.32578 119.082 8.93875C118.454 8.55204 117.776 8.26009 117.049 8.06288C116.322 7.86568 115.579 7.76675 114.822 7.76675C113.61 7.76675 112.493 7.97167 111.47 8.38118C110.448 8.791 109.561 9.364 108.811 10.0995C108.062 10.8357 107.474 11.7041 107.05 12.7056C106.626 13.707 106.414 14.7994 106.414 15.9829C106.414 17.197 106.615 18.3083 107.016 19.3171C107.418 20.3263 107.99 21.1986 108.732 21.9341C109.474 22.6702 110.349 23.2394 111.356 23.6415C112.364 24.043 113.466 24.2444 114.663 24.2444C115.435 24.2444 116.204 24.1493 116.969 23.9598C117.734 23.7703 118.431 23.5085 119.06 23.1748C119.688 22.8411 120.192 22.4618 120.571 22.0369L118.708 19.0781C118.42 19.3817 118.09 19.6508 117.719 19.8859C117.348 20.1213 116.943 20.307 116.503 20.4435C116.064 20.58 115.602 20.6484 115.117 20.6484C114.405 20.6484 113.757 20.5424 113.174 20.3298C112.591 20.1175 112.095 19.8063 111.686 19.3968C111.277 18.9869 110.959 18.4978 110.732 17.9286C110.504 17.3598 110.391 16.7264 110.391 16.0285C110.391 15.3155 110.504 14.6706 110.732 14.0937C110.959 13.5175 111.273 13.028 111.675 12.6259Z" fill="#d0d0d0"/>
<path d="M130.046 19.1465C130.046 19.45 129.993 19.7269 129.887 19.9771C129.781 20.2276 129.633 20.4476 129.444 20.6371C129.255 20.8269 129.027 20.975 128.762 21.081C128.497 21.1873 128.206 21.2403 127.888 21.2403C127.463 21.2403 127.1 21.1455 126.797 20.9557C126.494 20.7662 126.266 20.497 126.115 20.1476C125.964 19.7988 125.888 19.3819 125.888 18.896V11.9318H122.229V19.3967C122.229 20.4135 122.4 21.2859 122.741 22.014C123.082 22.7421 123.566 23.3 124.195 23.6867C124.824 24.0737 125.585 24.2671 126.479 24.2671C127.145 24.2671 127.774 24.1341 128.365 23.8691C128.956 23.6035 129.463 23.247 129.887 22.799C129.99 22.6907 130.085 22.578 130.174 22.4617L130.273 24.0169H133.705V11.9318H130.046V19.1465Z" fill="#d0d0d0"/>
<path d="M145.169 19.6585C144.949 20.1367 144.635 20.5122 144.226 20.7852C143.817 21.0582 143.34 21.1947 142.794 21.1947C142.234 21.1947 141.749 21.0582 141.34 20.7852C140.931 20.5122 140.613 20.1367 140.386 19.6585C140.159 19.1806 140.045 18.6156 140.045 17.963C140.045 17.3257 140.159 16.7646 140.386 16.279C140.613 15.7934 140.931 15.4218 141.34 15.1635C141.749 14.9056 142.234 14.7765 142.794 14.7765C143.34 14.7765 143.817 14.9056 144.226 15.1635C144.635 15.4218 144.949 15.7934 145.169 16.279C145.388 16.7646 145.499 17.3257 145.499 17.963C145.499 18.6156 145.388 19.1806 145.169 19.6585ZM146.442 12.4894C145.631 11.9511 144.703 11.6816 143.658 11.6816C143.158 11.6816 142.673 11.7577 142.204 11.909C141.734 12.0609 141.302 12.2697 140.908 12.535C140.622 12.728 140.373 12.9416 140.159 13.1748V7.17542H136.5V23.9941H139.886L139.98 22.7033C140.218 22.9718 140.499 23.2136 140.829 23.425C141.23 23.6832 141.681 23.8881 142.181 24.0397C142.681 24.191 143.203 24.2674 143.749 24.2674C144.764 24.2674 145.672 23.998 146.476 23.4593C147.278 22.9207 147.911 22.1772 148.373 21.2287C148.835 20.2809 149.066 19.1918 149.066 17.963C149.066 16.7492 148.831 15.6681 148.362 14.7197C147.892 13.7719 147.252 13.0283 146.442 12.4894Z" fill="#d0d0d0"/>
<path d="M153.884 16.1081C154.096 15.6604 154.41 15.3193 154.827 15.0836C155.243 14.8488 155.747 14.7312 156.338 14.7312C156.762 14.7312 157.141 14.8147 157.474 14.9814C157.807 15.1488 158.076 15.3797 158.281 15.6755C158.485 15.9713 158.602 16.3092 158.633 16.6882V16.711H153.682C153.733 16.4945 153.797 16.2906 153.884 16.1081ZM161.996 17.7808C162.026 16.9011 161.905 16.0892 161.632 15.3456C161.36 14.6024 160.966 13.9572 160.451 13.4108C159.935 12.8648 159.326 12.4402 158.621 12.1364C157.917 11.8332 157.141 11.6813 156.292 11.6813C155.398 11.6813 154.577 11.8371 153.827 12.1476C153.077 12.4589 152.429 12.8989 151.884 13.468C151.338 14.0368 150.914 14.7081 150.611 15.4818C150.308 16.2559 150.157 17.1057 150.157 18.031C150.157 19.23 150.43 20.2957 150.975 21.2287C151.52 22.1621 152.285 22.8979 153.27 23.4362C154.255 23.9752 155.414 24.2443 156.747 24.2443C157.292 24.2443 157.841 24.1798 158.394 24.051C158.947 23.9222 159.488 23.7288 160.019 23.4706C160.549 23.2127 161.049 22.879 161.519 22.4691L159.814 20.0567C159.345 20.4206 158.909 20.6789 158.508 20.8305C158.106 20.9824 157.648 21.0582 157.133 21.0582C156.391 21.0582 155.75 20.9217 155.213 20.6484C154.675 20.3754 154.266 19.9922 153.986 19.4988C153.857 19.2718 153.761 19.0238 153.691 18.7595H161.973L161.996 17.7808Z" fill="#d0d0d0"/>
<path d="M44.3383 9.52468C44.2597 9.34834 44.1506 9.19469 44.0109 9.06408C43.8711 8.93348 43.7119 8.83141 43.533 8.75714C43.4127 8.70739 43.286 8.67593 43.154 8.65965L44.3252 7.40499L44.1223 7H41.3069V7.934L42.7755 7.96418L41.8045 9.01854L42.0468 9.66516C42.134 9.62163 42.219 9.58669 42.3021 9.56053C42.385 9.53456 42.4635 9.51389 42.5378 9.49852C42.612 9.48334 42.6818 9.47566 42.7473 9.47566C42.8914 9.47566 43.0146 9.49981 43.1173 9.54754C43.2197 9.59547 43.2982 9.66626 43.353 9.75992C43.4074 9.85357 43.4347 9.9679 43.4347 10.1027C43.4347 10.2291 43.403 10.3423 43.3399 10.4426C43.2765 10.5426 43.1935 10.62 43.0911 10.6745C42.9883 10.7289 42.876 10.7559 42.7538 10.7559C42.6316 10.7559 42.5149 10.7354 42.4035 10.6939C42.2923 10.6526 42.1853 10.5862 42.0828 10.4949C41.9801 10.4033 41.8808 10.2814 41.7849 10.1291L40.9861 10.6451C41.213 11.0239 41.4651 11.2908 41.7423 11.4452C42.0194 11.5997 42.3435 11.6771 42.7145 11.6771C43.0375 11.6771 43.331 11.6074 43.5952 11.468C43.8592 11.3288 44.0687 11.1404 44.2238 10.903C44.3786 10.6657 44.4561 10.3947 44.4561 10.0897C44.4561 9.88943 44.4169 9.70102 44.3383 9.52468Z" fill="#d0d0d0"/>
<path d="M20.1066 15.5821L16.956 21.0351L20.1067 26.4881L17.6292 30.7801L12 21.0372L17.6292 11.2942L20.1066 15.5821Z" fill="#d0d0d0"/>
<path d="M17.6293 35.0702L33.845 7.00003L38.8048 7L22.5865 35.0702L17.6293 35.0702Z" fill="#d0d0d0"/>
<path d="M39.4755 21.0351L36.3249 15.5821L38.8035 11.2921L44.4327 21.0351L38.8035 30.7781L36.3249 26.4881L39.4755 21.0351Z" fill="#d0d0d0"/>
</svg>
