<svg version="1.2" xmlns="http://www.w3.org/2000/svg" viewBox="0 0 640 529" width="640" height="529"><defs><clipPath clipPathUnits="userSpaceOnUse" id="cp1"><path d="m-80-135h800v800h-800z"/></clipPath></defs><style>.a{fill:none}.b{fill:#d63c34}path:not(.a):not(.b){fill:#ffffff}</style><g clip-path="url(#cp1)"><path class="a" d="m720-135h-800v800h800z"/><path  d="m149.2 510.7q-1.6-1.3-3.9-2.3-2.3-1-5.3-1.6-2.1-0.5-3.6-1-1.5-0.6-2.4-1.3-0.9-0.8-1.3-1.7-0.4-0.9-0.4-2.1 0-1.5 0.9-2.7 0.8-1.1 2.4-1.8 1.6-0.6 3.7-0.6 1.8 0 3.4 0.6 1.6 0.6 3 1.8 1.3 1.2 2.4 3l4.1-4q-1.3-2.2-3.2-3.7-1.8-1.4-4.3-2.2-2.4-0.7-5.3-0.7-2.7 0-5.1 0.7-2.4 0.8-4.1 2.2-1.7 1.5-2.7 3.4-1 1.9-1 4.2 0 2.3 0.7 4.2 0.7 1.8 2.1 3.3 1.5 1.4 3.6 2.4 2.2 1 5.1 1.5 1.8 0.4 3.2 0.8 1.4 0.5 2.4 1.1 1.1 0.6 1.8 1.3 0.6 0.7 1 1.5 0.3 0.9 0.3 1.9 0 1.4-1 2.5-1 1.2-2.6 1.8-1.7 0.7-3.7 0.7-3.4 0-5.8-1.5-2.4-1.4-5-5.2l-4 4.6q1.7 2.4 3.8 4 2.1 1.7 4.7 2.5 2.6 0.8 5.7 0.8 4.2 0 7.3-1.5 3.1-1.4 4.7-4 1.7-2.6 1.7-6.2 0-2-0.8-3.7-0.9-1.6-2.5-3z"/><path  d="m203.6 495.9q-2.5-2.6-5.8-4.1-3.4-1.4-7.4-1.4-3.9 0-7.3 1.4-3.4 1.5-5.9 4.1-2.5 2.6-3.8 6.1-1.4 3.5-1.4 7.7 0 4.2 1.4 7.7 1.3 3.6 3.8 6.2 2.5 2.6 5.9 4 3.4 1.5 7.3 1.5 4 0 7.4-1.5 3.3-1.4 5.8-4.1 2.5-2.6 3.9-6.1 1.4-3.5 1.4-7.7 0-4.1-1.4-7.6-1.4-3.6-3.9-6.2zm-1.6 19.3q-0.9 2.5-2.6 4.3-1.6 1.9-3.9 2.9-2.3 1-5.1 1-2.7 0-5-1-2.3-1-4-2.8-1.7-1.9-2.6-4.4-0.9-2.5-0.9-5.5 0-3 0.9-5.5 0.9-2.5 2.6-4.3 1.7-1.9 4-2.9 2.3-1 5-1 2.8 0 5.1 1 2.3 1 3.9 2.9 1.7 1.9 2.6 4.4 1 2.5 1 5.4 0 3-1 5.5z"/><path  d="m255.1 490.9h-24.4v37.6h5.8v-16h16.2v-5.6h-16.2v-10.4h18.6z"/><path  d="m274.5 496.5h10.5v32h5.8v-32h10.9v-5.6h-27.2z"/><path  d="m357 514.3q-0.5 1.4-0.7 2.2-0.2 0.8-0.4 1.3-0.1 0.5-0.2 1.1 0 0.1 0 0.2-0.3-1.1-0.6-2.2-0.4-1.2-1-2.5l-6.5-17h-5.3l-6.7 17q-0.3 0.6-0.5 1.4-0.3 0.9-0.7 2.4-0.2 0.5-0.4 1.2 0-0.3-0.1-0.6-0.2-1.2-0.5-2.3-0.3-1.2-0.6-2.1l-7.2-23.5h-6.2l12 37.6h3.9l9.4-22.8 9.6 22.8h4.1l12-37.6h-6.3z"/><path  d="m399.4 490.9l-14.6 37.6h5.9l3.6-9.3h15.7l3.6 9.3h6.2l-14.5-37.6zm-3 22.7l2.9-7.5q0.3-1 0.8-2.3 0.5-1.4 1-3 0.5-1.5 1-2.9 0-0.3 0.1-0.5 0 0.1 0.1 0.1 0.4 1.5 1 3.3 0.6 1.8 1.1 3.2 0.4 1.5 0.6 1.8l2.9 7.8z"/><path  d="m462.3 512.8q2.7-1.6 4.3-4.2 1.7-2.6 1.7-5.7 0-3.4-1.7-6.1-1.6-2.7-4.3-4.3-2.7-1.6-5.9-1.6h-16v37.6h5.8v-14.1h8.6l7.9 14.1 7.1 0.1-8.8-15.1q0.7-0.3 1.3-0.7zm-16.1-16.3h9.2q2 0 3.6 0.8 1.6 0.8 2.5 2.2 0.8 1.5 0.8 3.3 0 1.7-0.7 3.1-0.7 1.3-1.9 2.1-1.2 0.8-2.8 0.8h-10.7z"/><path  d="m515.4 496.5v-5.6h-23.7v37.6h23.7v-5.6h-17.9v-10.9h15v-5.6h-15v-9.9z"/><path  d="m30 390.4q3.4-3.5 8-5.3 4.6-1.9 9.8-1.9 4.1 0 7.8 1.1 3.6 1.2 6.6 3.3 3.1 2.2 5.8 5l13.5-15.4q-3.9-4.5-9.3-7.8-5.4-3.3-11.6-5-6.2-1.7-12.7-1.7-10.3 0-19.1 3.5-8.7 3.5-15.1 9.8-6.4 6.3-10.1 14.8-3.6 8.6-3.6 18.7 0 10.3 3.4 18.9 3.5 8.7 9.8 14.9 6.4 6.3 15 9.7 8.6 3.5 18.8 3.5 6.6 0 13.2-1.6 6.5-1.7 11.9-4.5 5.4-2.9 8.6-6.5l-10.6-16.8q-2.5 2.6-5.7 4.6-3.1 2-6.9 3.2-3.7 1.1-7.9 1.1-6.1 0-11.1-1.8-5-1.8-8.5-5.3-3.4-3.5-5.4-8.4-1.9-4.8-1.9-10.8 0-6.1 1.9-11 2-4.9 5.4-8.3z"/><path  d="m142.4 389.7q-8.3-4.7-19.1-4.7-10.7 0-19.1 4.7-8.4 4.6-13.2 12.6-4.9 8.1-4.9 18.4 0 10.4 4.9 18.4 4.8 8.1 13.2 12.7 8.4 4.7 19.1 4.7 10.8 0 19.1-4.7 8.4-4.6 13.2-12.7 4.7-8 4.8-18.4-0.1-10.3-4.8-18.4-4.8-8-13.2-12.6zm-5.1 40.2q-2.1 4-5.7 6.4-3.6 2.3-8.3 2.3-4.7 0-8.3-2.3-3.7-2.4-5.8-6.4-2.1-4-2-9.2-0.1-5.1 2-9.2 2.1-4.1 5.8-6.4 3.6-2.4 8.3-2.4 4.7 0 8.3 2.4 3.6 2.3 5.7 6.4 2.1 4.1 1.9 9.2 0.2 5.2-1.9 9.2z"/><path  d="m217.7 393.1q-1.5-1.5-3.3-2.8-3.5-2.5-7.8-3.9-4.3-1.4-8.9-1.4-9.1 0-16.1 4.7-7 4.6-11 12.7-4 8.1-4 18.5 0 10.3 4 18.4 4 8.1 10.9 12.7 7 4.6 15.9 4.6 4.8 0 9.1-1.3 4.4-1.4 7.7-3.7 2.6-1.7 4.5-3.9l0.6 7.5h19.3v-95.9h-20.9zm-1.3 37.5q-1.9 4.1-5.4 6.5-3.5 2.3-8.3 2.3-4.8 0-8.2-2.3-3.5-2.4-5.4-6.5-1.9-4.2-1.9-9.7 0-5.7 1.9-9.9 1.9-4.1 5.4-6.5 3.4-2.3 8.2-2.3 4.8 0 8.3 2.3 3.5 2.4 5.4 6.5 1.8 4.2 1.8 9.9 0 5.5-1.8 9.7z"/><path  d="m307.4 394.8q-4.4-4.6-10.5-7.2-6-2.6-13.2-2.6-7.7 0-14.1 2.6-6.4 2.7-11.1 7.6-4.6 4.8-7.2 11.4-2.6 6.6-2.6 14.5 0 10.3 4.6 18.2 4.7 8 13.1 12.6 8.4 4.6 19.8 4.6 4.7 0 9.4-1.1 4.8-1.1 9.3-3.3 4.5-2.2 8.5-5.7l-9.7-13.7q-4 3.1-7.4 4.4-3.4 1.3-7.9 1.3-6.3 0-10.9-2.4-4.6-2.3-7-6.5-1.1-2-1.7-4.2h47.2l0.2-5.6q0.2-7.5-2.1-13.9-2.3-6.3-6.7-11zm-37.5 15.4q1.8-3.8 5.4-5.8 3.6-2.1 8.6-2.1 3.6 0 6.5 1.5 2.8 1.4 4.6 3.9 1.7 2.5 2 5.8v0.1h-28.2c0.3-1.2 0.6-2.4 1.1-3.4z"/><path  d="m353.1 390.4q3.5-3.5 8.1-5.3 4.6-1.9 9.8-1.9 4.1 0 7.7 1.1 3.7 1.2 6.7 3.3 3 2.2 5.8 5l13.4-15.4q-3.9-4.5-9.2-7.8-5.4-3.3-11.6-5-6.2-1.7-12.7-1.7-10.4 0-19.1 3.5-8.8 3.5-15.2 9.8-6.4 6.3-10 14.8-3.6 8.6-3.6 18.7 0 10.3 3.4 18.9 3.4 8.7 9.8 14.9 6.3 6.3 14.9 9.7 8.6 3.5 18.9 3.5 6.6 0 13.1-1.6 6.6-1.7 11.9-4.5 5.4-2.9 8.7-6.5l-10.7-16.8q-2.4 2.6-5.6 4.6-3.2 2-6.9 3.2-3.8 1.1-7.9 1.1-6.1 0-11.1-1.8-5-1.8-8.5-5.3-3.5-3.5-5.4-8.4-2-4.8-2-10.8 0-6.1 2-11 1.9-4.9 5.3-8.3z"/><path  d="m457.9 427.5q0 2.6-0.9 4.7-1 2.1-2.6 3.8-1.6 1.6-3.9 2.5-2.2 0.9-4.9 0.9-3.7 0-6.3-1.6-2.6-1.7-3.8-4.6-1.3-3-1.3-7.2v-39.6h-20.9v42.5q0 8.7 2.9 14.9 2.9 6.2 8.3 9.5 5.4 3.3 13 3.3 5.7 0 10.8-2.3 5-2.2 8.7-6 0.8-1 1.6-2l0.6 8.9h19.5v-68.8h-20.8z"/><path  d="m551.3 389.6q-6.9-4.6-15.8-4.6-4.3 0-8.3 1.3-4.1 1.3-7.4 3.5-2.5 1.7-4.3 3.7v-34.2h-20.8v95.8h19.2l0.6-7.4q2 2.3 4.8 4.1 3.5 2.2 7.7 3.5 4.3 1.3 9 1.3 8.6 0 15.5-4.6 6.9-4.6 10.8-12.7 4-8.1 4-18.6 0-10.3-4-18.4-4.1-8.1-11-12.7zm-7.2 40.8q-1.9 4.1-5.4 6.4-3.5 2.3-8.2 2.3-4.8 0-8.3-2.3-3.5-2.3-5.4-6.4-1.9-4.1-1.9-9.7 0-5.4 1.9-9.5 1.9-4.2 5.4-6.4 3.5-2.2 8.3-2.2 4.7 0 8.2 2.2 3.5 2.2 5.4 6.4 1.8 4.1 1.8 9.5 0 5.6-1.8 9.7z"/><path  d="m640 419.7q0.2-7.5-2.1-13.9-2.3-6.3-6.7-11-4.4-4.6-10.5-7.2-6-2.6-13.2-2.6-7.7 0-14.1 2.6-6.4 2.7-11.1 7.6-4.6 4.8-7.2 11.4-2.6 6.6-2.6 14.5 0 10.3 4.7 18.2 4.6 8 13 12.6 8.5 4.6 19.9 4.6 4.6 0 9.3-1.1 4.8-1.1 9.3-3.3 4.5-2.2 8.6-5.7l-9.8-13.7q-4 3.1-7.4 4.4-3.4 1.3-7.8 1.3-6.4 0-11-2.4-4.6-2.3-7-6.5-1.1-2-1.7-4.2h47.2zm-46.2-9.6q1.8-3.8 5.4-5.8 3.5-2 8.6-2 3.6 0 6.5 1.4 2.8 1.5 4.6 4 1.7 2.5 2 5.8v0.1h-28.2c0.2-1.3 0.6-2.4 1.1-3.5z"/><path class="b" d="m506.2 29.1q-1.3-3-3.7-5.3-2.5-2.2-5.6-3.5-2-0.9-4.3-1.1l13.5-14.5-2.4-4.7h-32.4v10.8l16.9 0.3-11.2 12.2 2.8 7.5q1.5-0.8 2.9-1.2 1.5-0.5 2.8-0.8 1.3-0.2 2.4-0.2 2.5 0 4.3 0.8 1.7 0.8 2.7 2.5 0.9 1.6 0.9 3.9 0 2.2-1.1 3.9-1.1 1.8-2.9 2.7-1.7 1-3.8 1-2.2 0-4.1-0.8-1.9-0.7-3.7-2.3-1.8-1.5-3.4-4.2l-9.2 6q3.9 6.5 8.7 9.2 4.8 2.7 11.2 2.7 5.6 0 10.2-2.4 4.5-2.4 7.2-6.5 2.7-4.2 2.7-9.4 0-3.5-1.4-6.6z"/><path class="b" d="m226.7 99.1l-36.3 62.9 36.3 62.9-28.5 49.6-65-112.5 65-112.4z"/><path class="b" d="m198.2 324l187-324h57.2l-187.1 324z"/><path class="b" d="m450.1 162l-36.3-62.9 28.6-49.6 64.9 112.5-64.9 112.5-28.6-49.6z"/></g></svg>