<svg width="357" height="53" viewBox="0 0 357 53" fill="none" xmlns="http://www.w3.org/2000/svg">
<path d="M0.641335 29.6364V28.2727L23.9936 13.1023V14.7216L1.91974 29.0398L2.17543 28.6136V29.2955L1.91974 28.8693L23.9936 43.1875V44.8068L0.641335 29.6364ZM149.832 8.99006V2.36364H184.647V8.99006H171.16V46H163.319V8.99006H149.832ZM200.76 46.6392C197.479 46.6392 194.645 45.9574 192.259 44.5938C189.887 43.2159 188.061 41.2699 186.783 38.7557C185.505 36.2273 184.865 33.2514 184.865 29.8281C184.865 26.4616 185.505 23.5071 186.783 20.9645C188.076 18.4077 189.88 16.419 192.195 14.9986C194.51 13.5639 197.23 12.8466 200.355 12.8466C202.373 12.8466 204.276 13.1733 206.066 13.8267C207.87 14.4659 209.461 15.4602 210.838 16.8097C212.23 18.1591 213.324 19.8778 214.12 21.9659C214.915 24.0398 215.313 26.5114 215.313 29.3807V31.7457H188.488V26.5469H207.919C207.905 25.0696 207.586 23.7557 206.961 22.6051C206.336 21.4403 205.462 20.5241 204.34 19.8565C203.232 19.1889 201.939 18.8551 200.462 18.8551C198.885 18.8551 197.5 19.2386 196.307 20.0057C195.114 20.7585 194.184 21.7528 193.516 22.9886C192.863 24.2102 192.529 25.5526 192.515 27.0156V31.554C192.515 33.4574 192.863 35.0909 193.559 36.4545C194.255 37.804 195.228 38.8409 196.478 39.5653C197.728 40.2756 199.191 40.6307 200.867 40.6307C201.989 40.6307 203.005 40.4744 203.914 40.1619C204.823 39.8352 205.611 39.3594 206.279 38.7344C206.946 38.1094 207.451 37.3352 207.792 36.4119L214.993 37.2216C214.539 39.125 213.672 40.7869 212.394 42.2074C211.13 43.6136 209.51 44.7074 207.536 45.4886C205.561 46.2557 203.303 46.6392 200.76 46.6392ZM231.256 46.6605C229.182 46.6605 227.314 46.2912 225.652 45.5526C224.004 44.7997 222.697 43.6918 221.732 42.2287C220.78 40.7656 220.304 38.9616 220.304 36.8168C220.304 34.9702 220.645 33.4432 221.327 32.2358C222.009 31.0284 222.939 30.0625 224.118 29.3381C225.297 28.6136 226.625 28.0668 228.102 27.6974C229.594 27.3139 231.135 27.0369 232.726 26.8665C234.643 26.6676 236.199 26.4901 237.392 26.3338C238.585 26.1634 239.452 25.9077 239.991 25.5668C240.545 25.2116 240.822 24.6648 240.822 23.9261V23.7983C240.822 22.1932 240.347 20.9503 239.395 20.0696C238.443 19.1889 237.072 18.7486 235.283 18.7486C233.393 18.7486 231.895 19.1605 230.787 19.9844C229.693 20.8082 228.955 21.7812 228.571 22.9034L221.369 21.8807C221.938 19.892 222.875 18.2301 224.182 16.8949C225.489 15.5455 227.087 14.5369 228.976 13.8693C230.865 13.1875 232.953 12.8466 235.24 12.8466C236.817 12.8466 238.386 13.0313 239.949 13.4006C241.511 13.7699 242.939 14.3807 244.232 15.233C245.524 16.071 246.561 17.2145 247.342 18.6634C248.138 20.1122 248.536 21.9233 248.536 24.0966V46H241.121V41.5043H240.865C240.396 42.4134 239.736 43.2656 238.884 44.0611C238.045 44.8423 236.987 45.4744 235.709 45.9574C234.445 46.4261 232.96 46.6605 231.256 46.6605ZM233.259 40.9929C234.807 40.9929 236.149 40.6875 237.286 40.0767C238.422 39.4517 239.295 38.6278 239.906 37.6051C240.531 36.5824 240.844 35.4673 240.844 34.2599V30.4034C240.602 30.6023 240.19 30.7869 239.608 30.9574C239.04 31.1278 238.401 31.277 237.69 31.4048C236.98 31.5327 236.277 31.6463 235.581 31.7457C234.885 31.8452 234.281 31.9304 233.77 32.0014C232.619 32.1577 231.589 32.4134 230.68 32.7685C229.771 33.1236 229.054 33.6207 228.528 34.2599C228.003 34.8849 227.74 35.6946 227.74 36.6889C227.74 38.1094 228.259 39.1818 229.295 39.9062C230.332 40.6307 231.653 40.9929 233.259 40.9929ZM256.291 46V13.2727H263.663V18.8338H264.047C264.729 16.9588 265.858 15.4957 267.435 14.4446C269.011 13.3793 270.893 12.8466 273.081 12.8466C275.297 12.8466 277.165 13.3864 278.685 14.4659C280.219 15.5312 281.298 16.9872 281.923 18.8338H282.264C282.989 17.0156 284.21 15.5668 285.929 14.4872C287.662 13.3935 289.714 12.8466 292.087 12.8466C295.098 12.8466 297.555 13.7983 299.459 15.7017C301.362 17.6051 302.314 20.3821 302.314 24.0327V46H294.58V25.2259C294.58 23.1946 294.04 21.7102 292.96 20.7727C291.881 19.821 290.56 19.3452 288.997 19.3452C287.136 19.3452 285.68 19.9276 284.629 21.0923C283.592 22.2429 283.074 23.7415 283.074 25.5881V46H275.51V24.9062C275.51 23.2159 274.999 21.8665 273.976 20.858C272.967 19.8494 271.646 19.3452 270.013 19.3452C268.905 19.3452 267.896 19.6293 266.987 20.1974C266.078 20.7514 265.354 21.5398 264.814 22.5625C264.274 23.571 264.004 24.75 264.004 26.0994V46H256.291ZM323.647 0.318179L309.585 52.5625H308.136L322.199 0.318179H323.647ZM356.337 29.6364L332.985 44.8068V43.1875L355.059 28.8693L354.803 29.2955V28.6136L355.059 29.0398L332.985 14.7216V13.1023L356.337 28.2727V29.6364Z" fill="white"/>
<path d="M51.032 46H34.2422V2.36364H50.8615C55.3501 2.36364 59.228 3.23722 62.495 4.98438C65.7763 6.71733 68.3047 9.21733 70.0803 12.4844C71.87 15.7372 72.7649 19.6364 72.7649 24.1818C72.7649 28.7273 71.8771 32.6335 70.1016 35.9006C68.326 39.1534 65.8118 41.6534 62.559 43.4006C59.3061 45.1335 55.4638 46 51.032 46ZM46.0888 35.9432H50.6058C52.7649 35.9432 54.6044 35.5952 56.1243 34.8991C57.6584 34.2031 58.8232 33.0028 59.6186 31.2983C60.4283 29.5937 60.8331 27.2216 60.8331 24.1818C60.8331 21.142 60.4212 18.7699 59.5973 17.0653C58.7876 15.3608 57.5945 14.1605 56.0178 13.4645C54.4553 12.7685 52.5376 12.4205 50.2649 12.4205H46.0888V35.9432ZM94.0984 46.5966C90.604 46.5966 87.5927 45.929 85.0643 44.5938C82.5501 43.2443 80.6112 41.3125 79.2475 38.7983C77.8981 36.2699 77.2234 33.2443 77.2234 29.7216C77.2234 26.3409 77.9052 23.3864 79.2688 20.858C80.6325 18.3295 82.5572 16.3622 85.043 14.956C87.5288 13.5497 90.462 12.8466 93.8427 12.8466C96.3143 12.8466 98.5515 13.2301 100.554 13.9972C102.557 14.7642 104.269 15.8793 105.689 17.3423C107.11 18.7912 108.203 20.5526 108.971 22.6264C109.738 24.7003 110.121 27.0369 110.121 29.6364V32.3636H80.8881V25.8864H99.2972C99.283 24.9489 99.0415 24.125 98.5728 23.4148C98.1183 22.6903 97.5004 22.1293 96.7191 21.7315C95.9521 21.3196 95.0785 21.1136 94.0984 21.1136C93.1467 21.1136 92.2731 21.3196 91.4776 21.7315C90.6822 22.1293 90.043 22.6832 89.56 23.3935C89.0913 24.1037 88.8427 24.9347 88.8143 25.8864V32.875C88.8143 33.9261 89.0344 34.8636 89.4748 35.6875C89.9151 36.5114 90.5472 37.1577 91.3711 37.6264C92.195 38.0952 93.1893 38.3295 94.354 38.3295C95.1637 38.3295 95.9023 38.2159 96.57 37.9886C97.2518 37.7614 97.8342 37.4347 98.3171 37.0085C98.8001 36.5682 99.1552 36.0426 99.3825 35.4318H110.121C109.752 37.7045 108.878 39.679 107.5 41.3551C106.123 43.017 104.297 44.3097 102.025 45.233C99.766 46.142 97.1239 46.5966 94.0984 46.5966ZM147.083 13.2727L136.089 46H122.452L111.458 13.2727H123.816L129.1 34.9205H129.441L134.725 13.2727H147.083Z" fill="#F77F00"/>
</svg>
